<svg xmlns="http://www.w3.org/2000/svg" viewBox="0 0 66.39 65"><g id="Слой_2" data-name="Слой 2"><g id="Слой_1-2" data-name="Слой 1"><path d="M65.1,42.17a16.89,16.89,0,0,0-1.51-14.83c-.52-.87-.56-1.4.31-2.06a26.47,26.47,0,0,0,2.49-2.43L55.85,22V32.61l3.62-3.28c2.93,4,2.92,10.56,0,13.81L56,40.78c.48,3.27.9,6.19,1.34,9.18L66.22,48,63.45,45.9C64,44.59,64.66,43.41,65.1,42.17Z"/><path d="M22.47,51.2c10.63-2.38,17-7.31,22-14.57,4.35-6.31,6.61-13.48,8.1-19,.73-2.72,1.31-5.44,1.93-8.31.21-1,.42-2,.64-3L25.7,0c-.06.24-.11.47-.17.69C25.11,2.31,24.7,4,24.3,5.57c-1,3.9-2,7.93-3.22,11.82A36.11,36.11,0,0,1,17,25.31l-.3.46a8.45,8.45,0,0,1-7.61,3.87H8.88l-3.82,0H0v28.1H12.11l-6.75,7.2h.41c.57,0,1,0,1.46.06l.38,0A2.88,2.88,0,0,0,9.9,63.85c1.27-1.41,2.62-2.77,3.92-4.08.33-.32,1-1.06,1-1.06a2.47,2.47,0,0,1,1.61-.94c1.16,0,2.38,0,4.06,0h6.31L20,65h.89c.82,0,1.44,0,2-.06a1.89,1.89,0,0,0,1-.54c1.06-1,2.12-2.12,3.14-3.18.76-.78,1.55-1.6,2.33-2.39a2.87,2.87,0,0,1,1.87-1c1.41,0,2.8,0,3.86,0H41.5L34.67,65h.87c.74,0,1.31,0,1.83-.07a2.56,2.56,0,0,0,1.35-.66c1.05-1,2.09-2.09,3.1-3.13l2.26-2.31a3.12,3.12,0,0,1,2-1.09c1,0,2.19-.05,3.68-.05h6.44L49.37,65h.93c.89,0,1.57,0,2.2,0a1.38,1.38,0,0,0,.78-.39c.73-.74,1.46-1.52,2.16-2.27,1-1.08,2.06-2.2,3.16-3.26a5.08,5.08,0,0,1,2.83-1.23,14.07,14.07,0,0,1,1.7-.09l1.19,0h.18V52.93H13.32S21.82,51.34,22.47,51.2Zm-18-2.93V34H8.12c.77,0,1.41,0,2,0,5.23-.16,9.11-3.57,12.22-9.16,3-5.36,4.8-11.33,6.27-16.51.13-.48.29-.95.45-1.45.09-.25.17-.5.26-.77l.26-.81.84.18c3,.65,17.74,4.4,18.37,4.56l.92.24-.24.92c-.23.87-5.7,21.46-14.31,28.79a33.07,33.07,0,0,1-17.63,7.62C13.7,48.11,4.88,48.27,4.5,48.27Z"/></g></g></svg>