<svg xmlns="http://www.w3.org/2000/svg" viewBox="0 0 20.53 28"><g id="Слой_2" data-name="Слой 2"><g id="Capa_1" data-name="Capa 1"><path d="M10.89,27.76l9.33-8.4a.93.93,0,0,0,.31-.69v-5.6a.93.93,0,0,0-1.55-.7l-8.71,7.84L1.56,12.37a1,1,0,0,0-1-.16,1,1,0,0,0-.55.86v5.6a.93.93,0,0,0,.31.69l9.33,8.4A.93.93,0,0,0,10.89,27.76Z"/><path d="M10.89,15.63l9.33-8.4a.93.93,0,0,0,.31-.7V.93A.93.93,0,0,0,20,.08a.92.92,0,0,0-1,.16L10.27,8.08,1.56.24a.94.94,0,0,0-1-.16A1,1,0,0,0,0,.93v5.6a.93.93,0,0,0,.31.7l9.33,8.4A.93.93,0,0,0,10.89,15.63Z"/></g></g></svg>