<svg xmlns="http://www.w3.org/2000/svg" viewBox="0 0 73 73"><g id="Слой_2" data-name="Слой 2"><g id="Capa_1" data-name="Capa 1"><path d="M36.5,14.17A22.33,22.33,0,1,0,58.83,36.5,22.33,22.33,0,0,0,36.5,14.17Zm0,40.58V18.25a18.25,18.25,0,0,1,0,36.5Z"/><path d="M54.44,18.56a2,2,0,0,0,2.86,0l5-5a2,2,0,1,0-2.44-3.26,1.77,1.77,0,0,0-.41.41l-5,5a1.94,1.94,0,0,0-.11,2.74Z"/><path d="M18.15,54.44a2.06,2.06,0,0,0-2.45,0l-5,5a1.93,1.93,0,0,0-.12,2.74.63.63,0,0,0,.12.11,1.92,1.92,0,0,0,2.73.12,1.36,1.36,0,0,0,.12-.12l5-5A2.05,2.05,0,0,0,18.15,54.44Z"/><path d="M62.29,59.44l-5-5a2,2,0,0,0-2.86,2.86l5,5a1.93,1.93,0,0,0,2.74.12.63.63,0,0,0,.11-.12,1.92,1.92,0,0,0,.12-2.73A1.36,1.36,0,0,0,62.29,59.44Z"/><path d="M15.7,18.56a1.94,1.94,0,0,0,2.74.11l.12-.11a1.94,1.94,0,0,0,.11-2.74l-.11-.12-5-5a2,2,0,0,0-2.85,2.85Z"/><path d="M36.5,11.11a2,2,0,0,0,2-2V2a2,2,0,1,0-4.08,0v7A2,2,0,0,0,36.5,11.11Z"/><path d="M36.5,61.89a2,2,0,0,0-2,2v7a2,2,0,0,0,4.08,0v-7A2,2,0,0,0,36.5,61.89Z"/><path d="M71,34.46h-7a2,2,0,1,0,0,4.08h7a2,2,0,1,0,0-4.08Z"/><path d="M11.11,36.5a2,2,0,0,0-2-2H2a2,2,0,1,0,0,4.08h7A2,2,0,0,0,11.11,36.5Z"/></g></g></svg>