<svg xmlns="http://www.w3.org/2000/svg" viewBox="0 0 29.62 28"><defs><style>.cls-1{fill:#ffe07d;}.cls-1,.cls-10,.cls-2,.cls-3,.cls-4,.cls-5,.cls-6,.cls-7,.cls-8,.cls-9{fill-rule:evenodd;}.cls-2{fill:#6f6571;}.cls-3{fill:#eceaec;}.cls-4{fill:#ff8086;}.cls-5{fill:#dad8db;}.cls-6{fill:#f76672;}.cls-7{fill:#ffc269;}.cls-8{fill:#ffece4;}.cls-9{fill:#5d5360;}.cls-10{fill:#ffddce;}</style></defs><g id="Слой_2" data-name="Слой 2"><g id="Capa_1" data-name="Capa 1"><path class="cls-1" d="M7.73,16.12l-2,.79L4.2,16.12H1.57A1.15,1.15,0,0,1,.43,15V12.44h7.3Z"/><path class="cls-2" d="M12.09,16.12a2.2,2.2,0,0,0,2,.79h1.55c.79,0,.79.52.79,1.54H4.91a.71.71,0,0,1-.71-.71V16.12h7.89Z"/><path class="cls-1" d="M15,18.45c1,3.06-.43,2.32,4,4h2.18c-.24.66-.52,1.31-.81,2H12.65c-.72-2.7-7.71-3.64-8.4-1.29a6.19,6.19,0,0,1,.66-4.66Z"/><path class="cls-3" d="M15.91,9.72a6.2,6.2,0,0,0-.36-2.46s-.77-1.16-.77-1.16a3.64,3.64,0,0,0-1.08.57c-1.5.73-3.25,3-3.34,7.67l2.48.87,2.23-.87a16.22,16.22,0,0,0,.58-2.24Z"/><path class="cls-4" d="M10.71,16.12a2.18,2.18,0,0,0,2,.79h1.56c.78,0,.78.52.78,1.54v2.07h2.46V17.84c0-2.55-1.34-3.38-2.42-3.5H10.36A2.89,2.89,0,0,0,10.71,16.12Z"/><path class="cls-5" d="M11.71,14.34c.08-4.06,1.4-6.29,2.72-7.29a3.36,3.36,0,0,1-.73-.38c-1.5.73-3.25,3-3.34,7.67Z"/><path class="cls-6" d="M10.71,16.12a2.18,2.18,0,0,0,2,.79h.4a2,2,0,0,1-1-.79,2.89,2.89,0,0,1-.35-1.78H10.36A2.89,2.89,0,0,0,10.71,16.12Z"/><path class="cls-1" d="M6.59,8.76A1.15,1.15,0,0,1,7.73,9.9v1.89H.43V9.9A1.15,1.15,0,0,1,1.57,8.76Z"/><path class="cls-4" d="M7.73,13H.43V11.22h7.3Z"/><path class="cls-7" d="M2,9.9A1.15,1.15,0,0,1,3.1,8.76H1.57A1.16,1.16,0,0,0,1,8.91a1.12,1.12,0,0,0-.59,1v1.32H2Z"/><path class="cls-6" d="M2,12.44V11.22H.43V13H2Z"/><path class="cls-7" d="M1,13H.43v2a1.14,1.14,0,0,0,1.14,1.14H3.1A1.14,1.14,0,0,1,2,15V13Z"/><path class="cls-4" d="M4.31,24.4c-.15,0-.26,0-.25-.14a4,4,0,0,1,.19-1.15,4.29,4.29,0,0,1,8.4,1.29Z"/><path class="cls-2" d="M11.57,24.4A3.27,3.27,0,0,1,5,24.4Z"/><path class="cls-2" d="M26,27.17A2.89,2.89,0,0,1,22.55,25l5.63-1.3A2.91,2.91,0,0,1,26,27.17Z"/><path class="cls-3" d="M29.19,23.47l-.59.14-.42.09L22.55,25l-.88.2c-.08,0-.13.05-.14,0a3.46,3.46,0,0,1-.09-.78,4,4,0,0,1,3.54-4,3.94,3.94,0,0,1,3.62,1.69A4.06,4.06,0,0,1,29.19,23.47Z"/><path class="cls-4" d="M21.44,24.4H19.8c.29-.66.57-1.31.81-2a13.2,13.2,0,0,0-.07-9.86l1.15-.46,1,.46L25,20.44Z"/><path class="cls-8" d="M17.94,3.75a2.46,2.46,0,0,1,.18.94,2.57,2.57,0,0,1-2.57,2.57,2.67,2.67,0,0,1-.75-.11l-.57-2.88c0-.41.78-1.06,1-1.08l2.66.56Z"/><path class="cls-4" d="M18.81,3.75H15.28c-.27,0-.48.11-.48.52V7.15a3,3,0,0,1-1.1-.48,3.47,3.47,0,0,1-1.39-2.92,3.25,3.25,0,1,1,6.5,0Z"/><path class="cls-6" d="M17.26.92a3.1,3.1,0,0,0-.43,0,3.43,3.43,0,0,0-3.4,3.47,3.78,3.78,0,0,0,1,2.68,2.65,2.65,0,0,1-.75-.38,3.47,3.47,0,0,1-1.39-2.92A3.28,3.28,0,0,1,15.56.43a3.21,3.21,0,0,1,1.7.49Z"/><path class="cls-2" d="M17.49,20.52c.64,0,1.58.36,1.51,1.91H15.47c-.26,0-.44,0-.44-.36V20.52Z"/><path class="cls-6" d="M20.61,22.43c-.24.66-.52,1.31-.81,2H21c.29-.66.57-1.31.81-2a13.29,13.29,0,0,0-.07-9.86H20.54a13.2,13.2,0,0,1,.07,9.86Z"/><path class="cls-5" d="M21.44,24.4a3.46,3.46,0,0,0,.09.78c0,.07.06,0,.14,0l.88-.2.17,0a5.08,5.08,0,0,1-.07-.67l3.41-3.8a3.9,3.9,0,0,0-1.08,0l-3.54,4Z"/><path class="cls-7" d="M4.25,23.11a4.34,4.34,0,0,1,.86-1.58,4.2,4.2,0,0,1,.34-1.3,1.23,1.23,0,0,1,1.26-.89H15v-.89H4.91A6.19,6.19,0,0,0,4.25,23.11Z"/><path class="cls-6" d="M5.11,21.53a4.38,4.38,0,0,0-.85,1.54h0v0a4,4,0,0,0-.19,1.15c0,.16.1.14.25.14H6.07c-.08,0-.13,0-.12-.14A4.32,4.32,0,0,1,9.3,20.14a4.94,4.94,0,0,0-1-.1,4.29,4.29,0,0,0-3.24,1.49Z"/><path class="cls-9" d="M22.55,25a2.9,2.9,0,0,0,2.31,2.2,2.88,2.88,0,0,1-1.11-1.69l.17,0,4.33-1a2.91,2.91,0,0,0-.07-.77L22.72,25Z"/><path class="cls-9" d="M5,24.4a3.34,3.34,0,0,0,2.27,3,3.43,3.43,0,0,1-.81-2h4.88a3.55,3.55,0,0,0,.2-1H5Z"/><path class="cls-9" d="M4.91,18.45H7.13a.71.71,0,0,1-.71-.71V16.12H4.2v1.62A.71.71,0,0,0,4.91,18.45Z"/><path class="cls-10" d="M18.11,4.41a2.91,2.91,0,0,0-.17-.66H15.28c-.27,0-.48.11-.48.52V7.15a2.68,2.68,0,0,0,.64.11V4.93c0-.41.2-.49.47-.52Z"/><path class="cls-1" d="M23.18,10.1c.39-.13.62-.23.62.21v2.26H20.24a2.65,2.65,0,0,1-.12-1.46l3.06-1Z"/><path class="cls-8" d="M18.3,11.81l.39-.81,1.43.11c1,.08.95,1.46.12,1.46H18.69Z"/><path class="cls-4" d="M17.25,10.88l1.44.11v1.58H16.38l-.73-.47-1.44-.94c-1.72-1.12-.1-3,1.19-1.88l.51.44Z"/><path class="cls-10" d="M18.94,12.57h1.3a.64.64,0,0,0,.61-.78l-.14,0h-2v.76Z"/><path class="cls-6" d="M15.65,12.1l.73.47h2.31v-.76H16.85l-.72-.47-.32-.21-1.13-.73a1.37,1.37,0,0,1-.74-1.27c-.59.4-.77,1.35.27,2Z"/><path class="cls-7" d="M20.12,11.11a.76.76,0,0,1,.73.68.64.64,0,0,1-.61.78H21.7a1.9,1.9,0,0,0-.35-1.87l-1.23.41Z"/><path d="M1.57,8.33A1.57,1.57,0,0,0,0,9.9V15a1.57,1.57,0,0,0,1.57,1.57H3.76v1.19a1.15,1.15,0,0,0,.52,1,6.84,6.84,0,0,0-.48,4.38,5.5,5.5,0,0,0-.18,1.17.55.55,0,0,0,.16.42.58.58,0,0,0,.45.17h.41a3.7,3.7,0,0,0,7.32,0H21c0,.14,0,.29.07.43a.49.49,0,0,0,.25.33.55.55,0,0,0,.42,0l.48-.11a3.28,3.28,0,0,0,1.35,1.66,3.36,3.36,0,0,0,1.76.51,3.2,3.2,0,0,0,.75-.09A3.33,3.33,0,0,0,28.67,24l.61-.15a.43.43,0,0,0,.33-.52A4.37,4.37,0,0,0,25.3,20l-.66-2.27a.43.43,0,0,0-.54-.29.42.42,0,0,0-.29.53l.68,2.38L21.24,24h-.78a14,14,0,0,0,.69-11h1.23l.87,3a.42.42,0,0,0,.53.3.44.44,0,0,0,.3-.54L23.29,13h.51a.44.44,0,0,0,.44-.44V10.31A.76.76,0,0,0,24,9.67a.9.9,0,0,0-.87,0l-3,1-2.63-.21-1.08-.93a7.11,7.11,0,0,0-.22-1.89,3,3,0,0,0,2.42-2.95,2.74,2.74,0,0,0,0-.5h.3a.44.44,0,0,0,.43-.44,3.68,3.68,0,1,0-7.36,0A4,4,0,0,0,13,6.6a6,6,0,0,0-1.83,2.22,12.55,12.55,0,0,0-1.19,5.51h0a4,4,0,0,0,.12,1.34H8.17V9.9A1.57,1.57,0,0,0,6.59,8.33Zm22.49,18.1a2.43,2.43,0,0,1-.95-1.11l4.7-1.09a2.44,2.44,0,0,1-1.9,2.51h0a2.41,2.41,0,0,1-1.85-.31Zm-2.18-1.87,3.31-3.7a3.5,3.5,0,0,1,3.45,2.29l-6.75,1.56C21.89,24.66,21.88,24.61,21.88,24.56Zm-6.54-7.42a1,1,0,0,0-1.09-.66H12.69A2,2,0,0,1,11.18,16a1.89,1.89,0,0,1-.39-1.24H15c.63.07,2,.52,2,3.06v2.25H15.46V18.45a4.1,4.1,0,0,0-.12-1.31ZM17.49,21a1.1,1.1,0,0,1,.77.29,1.29,1.29,0,0,1,.3.74h-3.1V21Zm-6.68-7c.19-4.62,2-6.24,2.87-6.74a3.33,3.33,0,0,0,1,.4,2.55,2.55,0,0,0,.55.11,5.51,5.51,0,0,1,.21,1.1A1.59,1.59,0,0,0,14,8.62a1.53,1.53,0,0,0-1,1.26A1.78,1.78,0,0,0,14,11.52l1.2.78c-.12.56-.26,1.11-.42,1.61ZM15.28,3.32h0a.87.87,0,0,0-.87.95V6.55a3,3,0,0,1-1.62-2.8,2.81,2.81,0,0,1,5.59-.43Zm2.4,1.37a2.13,2.13,0,0,1-2.13,2.14h0l-.32,0V4.27a.56.56,0,0,1,0-.07h2.39a2.73,2.73,0,0,1,.05.5Zm.57,6.7v.75H16.51L14.44,10.8A1,1,0,0,1,13.9,10a.66.66,0,0,1,.41-.53.56.56,0,0,1,.25,0,.88.88,0,0,1,.56.23h0L17,11.21a.46.46,0,0,0,.25.1l1,.08Zm2.17.53c0,.1,0,.22-.18.22H19.11v-.68l1,.08A.35.35,0,0,1,20.42,11.92Zm.69-.68h0l2.26-.75v1.65h-2.1a1,1,0,0,0,0-.18,1.3,1.3,0,0,0-.18-.71ZM20.23,13a12.73,12.73,0,0,1,.07,9h-.87a2.13,2.13,0,0,0-.55-1.34,1.84,1.84,0,0,0-1-.52V17.84c0-2.72-1.41-3.56-2.29-3.82.12-.39.22-.79.32-1.21l.2.13a.48.48,0,0,0,.23.07ZM13.06,24a4.74,4.74,0,0,0-1.36-3,4.71,4.71,0,0,0-7.17.56,5.12,5.12,0,0,1,.63-2.68H9.23a.44.44,0,0,0,.43-.44A.43.43,0,0,0,9.23,18H4.91a.29.29,0,0,1-.28-.28V16.55h5.86l.06.07a2.78,2.78,0,0,0,2.14.72h1.56c.23,0,.25.05.28.11a2,2,0,0,1,.06.57H11.17a.43.43,0,0,0-.43.43.44.44,0,0,0,.43.44h3.42v3.18c0,.53.3.79.88.79H20c-.15.37-.3.74-.46,1.11ZM8.3,27.13a2.87,2.87,0,0,1-2.78-2.29h5.56A2.86,2.86,0,0,1,8.3,27.13ZM4.51,24a4.18,4.18,0,0,1,.15-.72v0a3.85,3.85,0,0,1,3.69-2.75A3.89,3.89,0,0,1,12.19,24H4.51ZM.87,13.44H7.3v2.24H1.57a.7.7,0,0,1-.7-.7Zm0-1.79H7.3v.92H.87Zm0-1.75a.7.7,0,0,1,.7-.7h5a.7.7,0,0,1,.71.7v.88H.87Z"/></g></g></svg>