<svg xmlns="http://www.w3.org/2000/svg" viewBox="0 0 75.26 73"><g id="Слой_2" data-name="Слой 2"><g id="Слой_1-2" data-name="Слой 1"><path d="M71.73,10.89c-9.06,0-17.05-3.18-24.55-9.69L45.84,0,43.15,2.26C36,8.06,28.37,10.89,19.88,10.89h-3.4V29.07l-5.23-2.76,5.87,11.11c0,.14.07.35.07.49L0,41.52l17.4,4.74L11.11,58.15,22,51.57a24.54,24.54,0,0,0,1.48,2.68L27,68.4l1.91-6.93A44.4,44.4,0,0,0,45.2,72.72l.71.28.78-.28C64,65.78,75.26,48.6,75.26,28.86v-18Zm-41.1,23L27.09,18.6,23.56,33.88l-1.91-1-.71-1.54c0-.78-.07-1.49-.07-2.34V15.21a39.59,39.59,0,0,0,24.9-9.55,39.49,39.49,0,0,0,25,9.55V28.93c0,17.9-9.62,33-25,39.47A38.52,38.52,0,0,1,29.85,56.24l1.06-5.38,10.82,4.88-5.23-10,17.83-3.19L36.78,37.77l6.16-11.6-9.14,6Z"/><path d="M62.39,22.56v8.85c0,12.23-6.65,22.49-17.4,26.81l-.92.35,1.55,4,.92-.35c12.24-4.88,20.09-17,20.09-30.84V18.32h-3a23.89,23.89,0,0,1-16.34-6.51l-.78-.63-2.9,3.25.78.64A28.13,28.13,0,0,0,62.39,22.56Z"/></g></g></svg>