<svg xmlns="http://www.w3.org/2000/svg" viewBox="0 0 65.69 73"><g id="Слой_2" data-name="Слой 2"><g id="Слой_1-2" data-name="Слой 1"><path d="M62.14,10.86c-9,0-17.07-3.15-24.52-9.64L36.27,0,33.56,2.24c-7.19,5.8-14.8,8.62-23.29,8.62H6.86V29c0,.3,0,.62,0,.94s0,.57,0,.83v1.77L2.7,38.81A13.79,13.79,0,0,0,0,47.06,14,14,0,0,0,13.94,61a14.1,14.1,0,0,0,4.38-.71A44,44,0,0,0,35.57,72.75l.74.25.8-.27c17.36-6.94,28.58-24.17,28.58-43.88v-18Zm-48,29.77a9,9,0,0,1,1.73-5.31l3.5-5.19-5.4-8L11.2,26.19v-11c9.16-.21,17.34-3.34,24.94-9.54a39.6,39.6,0,0,0,25.07,9.54V29c0,17.87-9.59,33-25,39.46A39,39,0,0,1,22.05,58.38a13.94,13.94,0,0,0,5.79-10.13,8.88,8.88,0,0,1-4.75,1.37A9,9,0,0,1,14.11,40.63Z"/><path d="M52.78,22.54V31.4c0,12.22-6.67,22.49-17.41,26.8l-.92.37L36,62.64l.95-.38c12.2-4.9,20.08-17,20.08-30.86V18.29h-3c-6,0-11.37-2.14-16.39-6.54l-.75-.66-2.88,3.27.75.66A28.13,28.13,0,0,0,52.78,22.54Z"/><path d="M29.79,40.63a6.59,6.59,0,0,0-1.31-4l-.05-.08,0,0-5.32-7.9-5.33,7.9v0l-.06.09a6.7,6.7,0,1,0,12.1,4Z"/></g></g></svg>