<svg xmlns="http://www.w3.org/2000/svg" viewBox="0 0 24 24"><g id="Слой_2" data-name="Слой 2"><g id="Слой_1-2" data-name="Слой 1"><path d="M12,24A12,12,0,1,1,24,12,12,12,0,0,1,12,24ZM12,1.71A10.29,10.29,0,1,0,22.29,12,10.31,10.31,0,0,0,12,1.71Z"/><path d="M16.29,17.14a.85.85,0,0,1-.61-.25L7.11,8.32A.86.86,0,1,1,8.32,7.11l8.57,8.57a.85.85,0,0,1,0,1.21A.83.83,0,0,1,16.29,17.14Z"/><path d="M7.71,17.14a.83.83,0,0,1-.6-.25.85.85,0,0,1,0-1.21l8.57-8.57a.86.86,0,1,1,1.21,1.21L8.32,16.89A.85.85,0,0,1,7.71,17.14Z"/></g></g></svg>